<?xml version="1.0" encoding="utf-8"?>
<!-- Generator: Adobe Illustrator 24.3.0, SVG Export Plug-In . SVG Version: 6.00 Build 0)  -->
<svg version="1.1" id="Layer_1" xmlns="http://www.w3.org/2000/svg" xmlns:xlink="http://www.w3.org/1999/xlink" x="0px" y="0px"
	 viewBox="0 0 170 170" style="enable-background:new 0 0 170 170;" xml:space="preserve">
<style type="text/css">
	.st0{fill:#0D3E84;stroke:#FFFFFF;stroke-width:2.5;}
	.st1{fill:#FDFDFD;}
	.st2{fill:#F9FAFB;}
	.st3{fill:#F6F7FA;}
	.st4{fill:#0D3E84;}
	.st5{fill:#FEFEFE;}
	.st6{fill:#01357E;}
	.st7{fill:#02357E;}
	.st8{fill:#FDFDFE;}
	.st9{fill:#FBFCFD;}
	.st10{fill:#F9FAFC;}
	.st11{fill:#FAFBFC;}
	.st12{fill:#04377F;}
	.st13{fill:#03367F;}
	.st14{fill:#03367E;}
	.st15{fill:#02367E;}
	.st16{fill:#FBFBFC;}
	.st17{fill:#FBFCFC;}
	.st18{fill:#BDCADD;}
	.st19{fill:#FCFDFD;}
	.st20{fill:#FCFDFE;}
	.st21{fill:none;}
	.st22{fill:#466CA0;}
</style>
<circle class="st0" cx="85" cy="85" r="83.75"/>
<g>
	<path class="st5" d="M47.11,88.41c0.7,4.49,2.57,8.54,4.96,12.34c7.48,11.91,17.28,21.55,29.09,29.16c0.93,0.6,1.97,1.05,2.95,1.57
		c2.22,1.18,4.31,0.79,6.31-0.54c2.86-1.89,4.98-4.48,6.82-7.3c6.94-10.64,11.39-22.23,13.08-34.83c0.89-6.63-0.84-12.64-4.74-18.05
		c-0.2-0.28-0.78-0.57-0.32-0.97c0.59-0.52,1.08-1.19,1.86-1.45c0.11-0.04,0.38,0.36,0.54,0.58c4.09,5.58,6.27,11.79,5.51,18.72
		c-1.58,14.34-6.6,27.43-14.92,39.22c-1.85,2.62-4.05,4.92-6.82,6.64c-2.68,1.67-5.4,1.89-8.3,0.54c-4.23-1.97-7.99-4.65-11.57-7.58
		c-8.48-6.95-15.94-14.83-21.71-24.22c-2.67-4.34-4.93-8.9-5.56-14.01c-1.04-8.37,1.02-16.06,5.73-23.03c2.48-3.68,5.6-6.75,9.3-9.2
		c0.63-0.42,0.79-0.8,0.65-1.55c-0.6-2.98-1.71-5.7-3.51-8.16c-1.44-1.97-1.54-4.03-0.28-6.15c1.71-2.86,4.03-4.81,7.51-5.04
		c1.38-0.09,2.59,0.29,3.64,1.2c1.21,1.05,2.46,2.05,3.23,3.49c0.26,0.49,0.47,0.34,0.82,0.12c2.57-1.61,5.3-1.57,8.04-0.63
		c2.25,0.77,3.39,2.72,3.31,5.12c-0.05,1.56-0.01,3.11-0.01,4.67c0,0.11,0.06,0.21,0.13,0.46c1.28-1.42,2.49-2.77,3.9-3.92
		c4.24-3.48,9.17-5.04,14.6-5.14c2.36-0.04,4.71-0.03,7.07,0c4.19,0.05,7.47,3.87,6.97,8.07c-0.05,0.41-0.16,0.58-0.57,0.56
		c-0.32-0.02-0.65-0.05-0.96,0.01c-1.05,0.19-1.3-0.24-1.35-1.27c-0.15-3.16-1.75-4.62-4.89-4.6c-3.7,0.03-7.43-0.26-11.08,0.6
		c-6.3,1.49-10.56,5.55-13.88,10.92c-4.17,6.73-6.46,14.27-9.66,21.41c-1.27,2.84-2.67,5.61-4.53,8.12
		c-3.55,4.79-8.24,6.53-14.07,5.41c-2.4-0.46-4.7-1.22-6.96-2.09C46.79,87.66,47.01,88.06,47.11,88.41z"/>
	<path class="st5" d="M98.39,89.6c-0.42,2.05-0.79,3.87-1.16,5.69c-0.04,0.2-0.06,0.39-0.11,0.59c-0.2,0.9-0.73,1.48-1.68,1.27
		c-0.95-0.2-1.24-0.92-1.05-1.84c0.43-2.11,0.79-4.24,1.31-6.32c0.27-1.1,0.02-1.66-1.03-2.06c-1.07-0.42-2.09-0.98-3.1-1.53
		c-0.55-0.3-0.8-0.18-1.1,0.35c-1.88,3.34-3.78,6.66-5.7,9.97c-0.38,0.65-0.25,1.32-0.25,1.98c-0.02,1.56-0.42,3.29,0.14,4.62
		c0.58,1.37,2.1,2.34,3.22,3.47c1.63,1.64,3.28,3.27,4.91,4.91c0.84,0.84,0.94,1.68,0.31,2.3c-0.58,0.58-1.51,0.46-2.31-0.34
		c-2.03-2.02-4.05-4.04-6.27-6.27c0,1.92,0,3.57,0,5.23c0,1.88,0,3.75,0,5.63c0,0.9-0.44,1.5-1.33,1.52
		c-0.96,0.03-1.43-0.57-1.43-1.54c0-1.8,0-3.59,0-5.39c0-4.03,0-8.06,0-12.09c0-0.42,0-0.84,0-1.49c-2.18,1.31-4.15,2.49-6.12,3.68
		c-0.34,0.21-0.4,0.56-0.49,0.92c-0.46,1.86-0.96,3.7-1.39,5.56c-0.23,0.99-0.78,1.51-1.78,1.28c-1.01-0.23-1.11-1.01-0.9-1.89
		c0.41-1.7,0.77-3.42,1.28-5.1c0.23-0.75-0.09-0.99-0.57-1.43c-2.09-1.94-4.31-2.39-6.85-0.94c-0.37,0.21-0.82,0.32-1.24,0.41
		c-0.77,0.16-1.38-0.13-1.63-0.87c-0.24-0.71-0.07-1.43,0.69-1.7c1.87-0.68,3.77-1.29,5.66-1.9c0.53-0.17,1,0.1,1.44,0.4
		c1.22,0.83,2.46,1.62,3.67,2.47c0.45,0.31,0.79,0.35,1.28,0.04c2.24-1.38,4.49-2.73,6.76-4.06c0.48-0.28,0.75-0.7,1-1.15
		c1.95-3.42,3.89-6.85,5.87-10.27c0.35-0.61,0.51-1.23,0.5-1.93c-0.02-2.87-0.01-5.75-0.01-8.62c0-1.53,0.35-2.07,1.35-2.08
		c1-0.02,1.41,0.56,1.41,2.03c0,2.75,0.02,5.51-0.01,8.26c-0.01,0.66,0.1,1.12,0.79,1.37c4.37,1.61,7.83,4.47,10.85,7.94
		c0.16,0.18,0.34,0.34,0.51,0.51c0.58,0.62,0.63,1.32,0.07,1.93c-0.61,0.66-1.35,0.67-2,0.02C100.77,92.05,99.67,90.9,98.39,89.6z"
		/>
	<path class="st5" d="M115.2,64.72c1.41-2.94,1.62-3.13,5.34-4.73c-4.3-3.32-8.75-6.1-14.41-5.91c-3.16,0.11-5.78,1.63-8.32,3.32
		c-2.86,1.91-5.36,4.27-8,6.47c-0.92,0.77-1.86,1.51-2.91,2.09c-0.7,0.39-1.44,0.69-2.27,0.62c-0.76-0.07-1.17-0.55-1.24-1.24
		c-0.07-0.64,0.24-1.26,0.9-1.38c1.6-0.28,2.68-1.38,3.83-2.33c2.92-2.41,5.7-5,8.9-7.06c3.84-2.47,7.91-3.93,12.56-3.08
		c3.76,0.69,7.1,2.3,10.22,4.45c1.98,1.36,3.78,2.93,5.49,4.61c0.3,0.29,0.57,0.6,0.61,0.99c0.34,3.33-0.51,7.47-4.27,9.4
		c-2.73,1.4-5.09,0.77-6.62-1.89c-1.12-1.94-2.62-3.39-4.83-3.99c-3.6-0.98-7.63,0.71-9.41,4c-0.48,0.88-1.07,1.43-2.09,0.98
		c-0.85-0.37-0.94-1.23-0.34-2.37c3.01-5.69,11-7.44,16.11-3.53C114.7,64.34,114.94,64.53,115.2,64.72z"/>
	<path class="st22" d="M47.11,88.41c-0.16-0.28-0.3-0.59-0.14-0.88c0.12-0.22,0.33-0.09,0.46,0.07
		C47.08,87.78,47.21,88.14,47.11,88.41z"/>
	<path class="st6" d="M57.67,87.23c-3.65-0.1-7.03-1.24-10.31-2.75c-0.48-0.22-0.57-0.54-0.54-1.05
		c0.61-10.77,5.56-19.08,14.27-25.29c0.67-0.47,1.27-0.52,2-0.22c1.46,0.6,2.53,1.66,3.43,2.89c2.45,3.37,3.84,7.21,4.96,11.18
		c0.08,0.28,0.06,0.52-0.06,0.8c-1.46,3.49-2.96,6.96-5.31,9.98C63.97,85.54,61.31,87.33,57.67,87.23z"/>
	<path class="st6" d="M79.95,46.21c0,2.45,0,4.8,0,7.14c0,0.29-0.07,0.54-0.22,0.79c-2.54,4.3-4.4,8.91-6.26,13.53
		c-0.04,0.1-0.12,0.18-0.27,0.4c-0.77-1.92-1.46-3.77-2.38-5.51c-0.99-1.88-2.13-3.65-3.66-5.14c-0.6-0.59-1.21-1.32-1.99-1.5
		c-2.18-0.48-2.63-2.06-2.97-3.92c-0.34-1.85-1.2-3.54-2.12-5.27c3.72-0.72,5.97-3.01,7.1-6.7c1.12,1.06,1.59,2.27,1.76,3.62
		c0.35,2.82,0.2,5.66,0.2,8.49c0,0.98,0.15,1.79,1.33,1.86c0.94,0.05,1.43-0.59,1.44-1.91c0.01-1.48,0.01-2.95,0-4.43
		c0-0.49,0.01-0.88,0.7-0.73C75.11,47.5,77.52,47.25,79.95,46.21z"/>
	<path class="st7" d="M58.95,44.05c-0.57,0.11-0.79-0.18-0.85-0.78c-0.07-0.82,0.28-1.46,0.7-2.11c1.18-1.83,2.72-3.12,4.98-3.32
		c0.44-0.04,0.96-0.2,0.9,0.66C64.46,41.37,61.8,44.01,58.95,44.05z"/>
	<path class="st15" d="M76.14,41.42c1.01,0.07,2.19,0.15,3.16,0.99c0.48,0.41,0.5,0.7-0.12,1.04c-2.1,1.14-4.26,1.34-6.54,0.63
		c-0.75-0.24-0.68-0.6-0.36-1.14C72.87,41.94,74.12,41.42,76.14,41.42z"/>
	<path class="st7" d="M123.2,63.53c0.03,2.29-1.38,4.44-3.38,5.21c-1.35,0.52-2.33-0.23-2.18-1.65c0.34-3.03,2.12-4.63,4.76-4.27
		C122.85,62.88,123.31,62.91,123.2,63.53z"/>
</g>
</svg>
