<?xml version="1.0" encoding="utf-8"?>
<!-- Generator: Adobe Illustrator 24.3.0, SVG Export Plug-In . SVG Version: 6.00 Build 0)  -->
<svg version="1.1" id="Layer_1" xmlns="http://www.w3.org/2000/svg" xmlns:xlink="http://www.w3.org/1999/xlink" x="0px" y="0px"
	 viewBox="0 0 170 170" style="enable-background:new 0 0 170 170;" xml:space="preserve">
<style type="text/css">
	.st0{fill:#0D3E84;}
	.st1{fill:#FDFDFD;}
	.st2{fill:#F9FAFB;}
	.st3{fill:#F6F7FA;}
</style>
<circle class="st0" cx="85" cy="85" r="85"/>
<g>
	<path class="st1" d="M116.92,82.94c-6.23,0.77-11.53-0.68-16.55-3.65c-3.42-2.02-6.39-2.04-8.58,2.24c-1.71,3.34-5,5.4-8.16,7.36
		c-0.9,0.56-2.07,1.06-2.79-0.09c-0.5-0.79,0.01-1.75,0.83-2.25c11.11-6.87,14.32-17.64,14.94-29.8c0.19-3.65,2.78-5.2,6.16-5.1
		c1.41,0.04,3.9-0.21,3.94,1.71c0.06,2.52-2.2,1.36-3.63,1.27c-2.5-0.16-3.39,1.15-3.54,3.49c-0.29,4.76-0.78,9.48-2.64,13.96
		c-0.45,1.09-1.04,2.66,0.74,3.05c5.62,1.23,10.18,5.63,16.5,5.02c3-0.29,3.88-1.14,3.84-4.05c-0.09-6.88-0.79-13.43-6.64-18.17
		c-0.79-0.64-1.9-1.29-1.07-2.53c1.1-1.63,2.18-0.44,3.06,0.29c3.5,2.9,5.85,6.48,6.77,11.02c2.25,11.11,0.28,21.31-6,30.78
		c-0.67,1.01-3.52,2.23-0.77,4.13c2.38,1.65,3.11-0.49,4.01-1.82c7.28-10.81,9.78-22.65,6.36-35.26
		c-2.64-9.75-9.4-15.42-19.57-16.78c-7.67-1.03-11.34-6.96-7.71-12.41c0.76-1.14,1.67-2.74,3.27-1.76c1.55,0.95,0.08,2-0.42,3.05
		c-2.05,4.32-0.56,7.45,4.12,7.92c18.16,1.84,25.95,16.56,24.66,33.86c-0.64,8.58-3.29,16.62-8.54,23.53
		c-1.71,2.25-1.46,3.77-0.16,6c2.75,4.72,2.74,9.76,0.54,14.72c-0.67,1.52-1.41,4.17-3.33,3.33c-2.38-1.04-0.13-2.96,0.48-4.35
		c2.28-5.18,1.81-10.08-1.75-14.38c-3.56-4.29-8.27-5.81-13.78-4.39c-6.98,1.8-11.33,9.02-9.58,15.93
		c1.87,7.42,8.84,11.6,16.14,10.1c1.67-0.34,4.43-3.39,5.18-0.13c0.56,2.44-3.06,2.68-5.22,3.11c-7.36,1.48-14.79-2.07-17.79-9.12
		c-1.21-2.83-2.84-3.72-5.55-4.47c-8.61-2.4-15.56-8.12-23.26-12.33c-7.1-3.89-8.52-3.26-8.71,4.81
		c-0.18,7.59-0.24,15.17-0.42,22.76c-0.03,1.11,0.51,2.89-1.17,3.05c-2.05,0.19-1.88-1.68-1.86-3.03
		c0.16-8.82,0.21-17.65,0.63-26.46c0.27-5.71,5.02-8.19,10.18-5.38c5.88,3.2,11.54,6.79,17.37,10.09c2.28,1.3,4.69,2.44,7.15,3.33
		c1.21,0.43,3.06,1.91,3.86-0.71c0.67-2.19-0.73-2.56-2.46-3.05c-4.46-1.26-8.32-3.87-12.1-6.4c-5.42-3.63-5.11-11.67,0.34-14.48
		c0.98-0.51,2.29-1.6,3.24-0.05c0.71,1.17-0.36,1.73-1.2,2.47c-4.68,4.12-4.35,7.31,1.01,10.61c1.8,1.11,3.63,2.17,5.47,3.21
		c3.77,2.12,7,3.29,10.03-1.7c2.37-3.91,6.88-6.03,11.42-5.47c4.34,0.53,6.11-1.79,7.92-4.64
		C114.27,91.53,116.13,87.95,116.92,82.94z"/>
	<path class="st2" d="M44.94,113.9c-0.01,6.52,0.04,13.04-0.04,19.57c-0.01,1.23,0.66,3.26-1.53,3.22
		c-1.51-0.03-1.51-1.69-1.51-2.93c-0.01-13.4-0.18-26.8,0.09-40.19c0.12-5.92,5.03-8.65,10.27-6.28c0.48,0.21,0.99,0.88,1.33,0.78
		c7.83-2.19,16.65,0.66,23.77-5.76c6.78-6.11,11.07-13.08,11.91-22.14c0.41-4.48-0.43-8.75-2.27-12.86
		c-1.87-4.17-1.34-8.25,0.95-12.12c0.59-1,1.27-2.49,2.78-1.57c1.1,0.67,0.6,1.77-0.01,2.76c-2.47,4-1.64,7.92-0.07,12.1
		c6.71,17.88-6.39,40.16-25.49,41.78c-4.74,0.4-10.21,2.97-15.58-0.55c-2.53-1.65-4.55,1.58-4.58,4.63
		C44.91,100.86,44.95,107.38,44.94,113.9z"/>
	<path class="st3" d="M105.4,105.42c2.33-0.12,4.48,0.23,4.47,3.5c0,1.29,0.77,1.86,2.01,1.91c3.58,0.15,3.51,2.7,3.54,5.28
		c0.02,2.56-0.42,4.63-3.61,4.65c-1.28,0.01-1.94,0.7-1.95,1.96c-0.02,3.69-2.59,3.54-5.17,3.55c-2.52,0-4.7-0.32-4.69-3.55
		c0.01-1.28-0.47-1.96-1.82-1.97c-3.56-0.04-3.6-2.46-3.63-5.13c-0.03-2.62,0.43-4.6,3.52-4.76c1.24-0.06,1.93-0.52,1.94-1.88
		C100.02,105.31,102.64,105.39,105.4,105.42z"/>
	<path class="st0" d="M105.88,108.81c-0.4-0.17,0.44,0,0.45,0.22c0.19,3.5,2.15,4.92,5.45,5.51c0.93,0.17,0.99,2.75-0.29,2.89
		c-3.03,0.34-4.97,1.1-4.81,4.64c0.04,0.98-1.17,1.08-2.07,1.06c-1.1-0.02-1.56-0.71-1.49-1.68c0.21-2.74-1.1-3.84-3.73-3.69
		c-1.03,0.06-1.6-0.51-1.65-1.55c-0.03-0.88,0.03-2.2,0.93-2.16c3.43,0.14,4.73-1.42,4.63-4.7
		C103.28,108.69,104.21,108.4,105.88,108.81z"/>
</g>
</svg>
