<?xml version="1.0" encoding="utf-8"?>
<!-- Generator: Adobe Illustrator 24.3.0, SVG Export Plug-In . SVG Version: 6.00 Build 0)  -->
<svg version="1.1" id="Layer_1" xmlns="http://www.w3.org/2000/svg" xmlns:xlink="http://www.w3.org/1999/xlink" x="0px" y="0px"
	 viewBox="0 0 170 170" style="enable-background:new 0 0 170 170;" xml:space="preserve">
<style type="text/css">
	.st0{fill:#0D3E84;stroke:#FFFFFF;stroke-width:2.5;}
	.st1{fill:#FDFDFD;}
	.st2{fill:#F9FAFB;}
	.st3{fill:#F6F7FA;}
	.st4{fill:#0D3E84;}
	.st5{fill:#FEFEFE;}
	.st6{fill:#01357E;}
	.st7{fill:#02357E;}
</style>
<g>
	<circle class="st0" cx="85" cy="85" r="83.75"/>
	<g>
		<path class="st5" d="M99.31,95.82c-1.77,0.6-2.47,1.67-2.47,3.78c-0.01,7.03,0,14.06,0,21.09c0,1.22-0.04,2.44-0.02,3.66
			c0.06,2.48-2.21,4.11-4.29,4.27c-2.29,0.18-4.46-1.7-4.73-3.98c-0.02-0.13-0.03-0.25-0.03-0.38c0.01-8.8-0.13-17.6,0.09-26.39
			c0.12-4.83,2.85-8.24,7.2-10.31c0.41-0.2,0.82-0.41,1.41-0.71c-5.16-1.9-9-5.12-11.5-10.12c-2.51,4.95-6.32,8.21-11.44,10.1
			c1.13,0.84,2.43,1.12,3.48,1.92c3.05,2.33,5.04,5.34,5.11,9.16c0.17,8.71,0.09,17.42,0.07,26.14c0,2.45-2.07,4.56-4.47,4.57
			c-2.09,0.01-4.43-1.39-4.65-4.16c-0.06-0.75-0.04-1.51-0.04-2.27c0-7.53,0-15.07-0.01-22.6c0-2.15-0.66-3.17-2.51-3.82
			c0.69,2.3,0.81,4.59,0.58,6.89c-0.31,3.18-1.58,5.98-3.54,8.44c-2.95,3.71-6.89,5.73-11.59,6.27c-3.46,0.39-6.66-0.51-9.72-2.01
			c-0.88-0.43-1.18-1.27-0.68-2.24c0.56-1.09,1.51-0.87,2.27-0.46c2.45,1.3,5.02,1.89,7.76,1.62c4.24-0.41,7.58-2.4,10.09-5.84
			c2.37-3.24,2.72-6.88,2.13-10.68c-0.4-2.6-1.81-4.72-3.52-6.65c-0.47-0.54-1-1.03-1.31-1.67c-0.4-0.82-0.93-0.63-1.35-0.14
			c-0.67,0.78-1.47,1.45-1.96,2.42c-0.61,1.21-1.52,1.45-2.46,0.83c-0.7-0.46-0.74-1.49-0.16-2.47c1-1.69,2.33-3.04,4-4.09
			c1.12-0.7,1.13-1.67-0.02-2.3c-1.71-0.93-2.89-2.35-3.94-3.92c-0.86-1.28-0.43-2.71,0.82-2.91c1.09-0.18,1.56,0.67,1.9,1.34
			c0.6,1.19,1.59,1.92,2.51,2.76c0.28,0.25,0.59,0.45,0.86,0.08c1.45-2.01,3.32-3.72,4.11-6.2c1.02-3.2,1.06-6.32-0.02-9.5
			c-1.09-3.2-3.26-5.54-6.06-7.21c-2.54-1.52-5.41-1.92-8.38-1.63c-5.16,0.5-8.48,3.73-11.28,7.66c-2.79,3.9-4.46,8.31-5.36,12.99
			c-0.89,4.65-0.94,9.36-0.36,14.06c0.59,4.81,2.12,9.3,4.5,13.5c0.68,1.19,1.56,2.26,2.32,3.4c0.52,0.79,0.41,1.53-0.38,2.08
			c-0.8,0.56-1.62,0.3-2.13-0.36c-3.27-4.17-5.35-8.92-6.62-14.05c-1.28-5.21-1.4-10.5-0.87-15.79c0.38-3.8,1.29-7.5,2.79-11.05
			c1.26-2.98,2.81-5.79,4.85-8.28c4.65-5.69,9.82-8.52,17.99-6.91c4.72,0.93,8.34,3.82,10.77,8.15c2.65,4.74,2.68,9.57,0.98,14.56
			c-0.12,0.35-0.36,0.66-0.53,1c-0.15,0.29-0.5,0.47-0.46,1.04c2.72-0.75,5.17-1.83,6.71-4.3c1.34-2.16,2.6-4.37,3.8-6.61
			c0.75-1.41,0.74-3.01,0.75-4.57c0.03-5.56,0.04-11.11,0-16.67c-0.02-2.85,2.26-5.43,5.46-4.91c1.98,0.32,3.66,2.13,3.75,4.43
			c0.09,2.23,0.04,4.46,0.04,6.69c0,3.49,0.01,6.99,0,10.48c0,2.68,0.83,5.07,2.33,7.29c0.93,1.38,1.58,2.95,2.57,4.3
			c1.57,2.14,3.81,3.12,6.52,3.87c-2.3-3.85-2.56-7.81-1.9-11.84c0.47-2.9,1.85-5.43,3.81-7.64c4.23-4.77,9.58-6.4,15.74-5.43
			c3.64,0.58,6.77,2.31,9.22,5.15c0.49,0.56,1.08,1.04,1.55,1.62c0.5,0.61,0.86,1.32,0.13,2.01c-0.66,0.63-1.39,0.99-2.19,0.18
			c-0.84-0.85-1.66-1.72-2.53-2.54c-3.56-3.34-7.81-4.27-12.46-3.25c-4.28,0.94-7.34,3.53-9.19,7.51c-1.88,4.03-1.7,8.05,0.13,12.02
			c0.84,1.84,2.36,3.19,3.6,4.75c0.3,0.37,0.62,0.05,0.85-0.18c0.91-0.9,1.97-1.65,2.53-2.91c0.5-1.13,1.55-1.43,2.35-0.89
			c0.87,0.58,0.97,1.48,0.31,2.53c-1.02,1.63-2.21,3.08-3.96,4.02c-1.35,0.72-1.2,1.62-0.09,2.33c1.69,1.08,3.04,2.46,4.07,4.19
			c0.57,0.95,0.53,1.92-0.25,2.39c-1,0.6-1.92,0.31-2.46-0.83c-0.52-1.09-1.39-1.86-2.24-2.66c-0.38-0.35-0.69-0.3-0.89,0.14
			c-0.7,1.51-2.03,2.53-2.96,3.88c-1.95,2.82-2.52,5.91-2.17,9.2c0.5,4.74,3.03,8.22,7.13,10.46c3.17,1.73,6.57,2.07,10.12,1.09
			c4.43-1.22,7.15-4.39,9.61-7.96c2.92-4.23,4.51-8.98,5.21-13.98c0.72-5.09,0.73-10.21-0.42-15.3c-0.57-2.55-1.29-5.01-2.4-7.38
			c-0.78-1.68-0.54-2.63,0.46-3.05c0.95-0.39,1.69,0.08,2.41,1.8c3.41,8.14,4.45,16.55,2.84,25.28c-0.73,3.95-1.84,7.74-3.7,11.29
			c-2.26,4.3-5.07,8.22-9.37,10.68c-3.67,2.1-7.65,2.78-11.9,1.83c-4.5-1-7.99-3.44-10.51-7.17c-2.75-4.07-3.17-8.65-2.21-13.4
			C99.25,96.25,99.27,96.05,99.31,95.82z"/>
		<path class="st6" d="M104.81,86.47c-2.94-1.06-5.82-2.05-8.67-3.14c-3.12-1.18-5.53-3.29-7.32-6.08c-0.76-1.19-1.38-2.47-2.1-3.68
			c-0.89-1.5-2.65-1.44-3.52,0.08c-1.4,2.46-2.75,4.93-4.9,6.89c-2.15,1.95-4.75,2.91-7.36,3.9c-1.92,0.72-3.88,1.31-5.83,1.95
			c-0.65-1.93-0.07-3.39,2.17-4.01c2.22-0.61,4.42-1.29,6.47-2.38c2.26-1.21,4.04-2.92,5.27-5.18c1.17-2.16,2.57-4.18,3.52-6.48
			c0.68-1.65,0.86-3.32,0.86-5.04c0.01-5.6,0.01-11.19,0-16.79c0-0.6-0.03-1.19,0.48-1.63c0.96-0.82,2.4-0.29,2.61,0.99
			c0.09,0.58,0.04,1.17,0.05,1.76c0.08,5.72-0.1,11.44,0.1,17.16c0.1,2.82,1.39,5.15,2.75,7.44c0.96,1.6,1.75,3.31,3.02,4.74
			c1.8,2.04,4.01,3.36,6.55,4.22c1.35,0.45,2.72,0.84,4.05,1.32C104.8,83.17,105.28,84.23,104.81,86.47z"/>
		<path class="st6" d="M66.74,89.15c0.96-0.46,1.79-0.54,2.68-0.25c2.88,0.94,5.91,1.6,7.79,4.35c0.98,1.43,1.83,2.93,1.83,4.71
			c0.03,8.62,0.04,17.24,0.05,25.87c0,0.98-0.43,1.61-1.5,1.62c-0.95,0.01-1.52-0.66-1.52-1.89c-0.01-4.79,0-9.59-0.01-14.39
			c0-3.32,0-6.65,0-9.97c0-3.73-2-5.96-5.3-6.63C68.59,92.14,67.98,90.47,66.74,89.15z"/>
		<path class="st7" d="M103.37,88.92c-1.44,1.72-2.32,3.29-4.58,3.77c-3.37,0.72-4.98,3.26-4.99,6.78c-0.01,7.95,0,15.9-0.01,23.85
			c0,0.98-0.01,2.01-1.36,2.12c-0.76,0.06-1.32-0.22-1.46-1.04c-0.06-0.37-0.13-0.75-0.13-1.12c-0.01-7.95,0.02-15.9-0.02-23.85
			c-0.01-3.17,0.92-5.96,3.49-7.82C96.88,89.76,99.75,88.5,103.37,88.92z"/>
	</g>
</g>
</svg>
