<?xml version="1.0" encoding="utf-8"?>
<!-- Generator: Adobe Illustrator 24.3.0, SVG Export Plug-In . SVG Version: 6.00 Build 0)  -->
<svg version="1.1" id="Layer_1" xmlns="http://www.w3.org/2000/svg" xmlns:xlink="http://www.w3.org/1999/xlink" x="0px" y="0px"
	 viewBox="0 0 170 170" style="enable-background:new 0 0 170 170;" xml:space="preserve">
<style type="text/css">
	.st0{fill:#0D3E84;stroke:#FFFFFF;stroke-width:2.5;}
	.st1{fill:#FDFDFD;}
	.st2{fill:#F9FAFB;}
	.st3{fill:#F6F7FA;}
	.st4{fill:#0D3E84;}
	.st5{fill:#FEFEFE;}
	.st6{fill:#01357E;}
	.st7{fill:#02357E;}
	.st8{fill:#FDFDFE;}
	.st9{fill:#FBFCFD;}
	.st10{fill:#F9FAFC;}
	.st11{fill:#FAFBFC;}
	.st12{fill:#04377F;}
	.st13{fill:#03367F;}
	.st14{fill:#03367E;}
</style>
<g>
	<circle class="st0" cx="85" cy="85" r="83.75"/>
	<g>
		<path class="st5" d="M83.77,62.41c0-6.35,0-12.58,0-18.81c0-4.49-4.9-7-8.2-6.11c-0.74,0.2-1.08,0.62-1.11,1.33
			c-0.04,1.31,0.21,2.56,1.17,3.52c0.65,0.66,0.54,1.19-0.06,1.72c-0.58,0.5-1.09,0.6-1.71-0.13c-1.1-1.31-1.8-3.02-1.91-4.67
			c-2.59,1.52-4.41,3.7-6.12,6.02c3.35,2.37,4.89,5.62,4.76,9.68c-0.03,0.94-0.32,1.76-1.39,1.69c-0.99-0.07-1.15-0.84-1.08-1.77
			c0.21-3.21-0.89-5.81-3.72-7.56c-0.33-0.21-0.63-0.31-1-0.24c-4.14,0.78-7.32,2.84-9.39,6.62c-1.37,2.5-1.94,5.1-1.65,7.92
			c0.09,0.84-0.33,1.36-1.1,1.62c-1.85,0.62-3.14,1.96-4.42,3.33c-0.7,0.75-0.7,1.34,0.17,1.93c1.24,0.84,1.91,2.06,2.29,3.49
			c0.31,1.17,0.19,2.27-0.2,3.4c-0.24,0.7-0.69,0.81-1.29,0.72c-0.58-0.09-0.95-0.43-0.96-1.03c-0.01-0.39,0.06-0.79,0.12-1.19
			c0.26-1.69-0.57-2.89-1.77-3.91c-0.29-0.25-0.46-0.15-0.61,0.2c-2.41,5.65-3,11.28,0.08,16.9c0.51,0.93,1.12,1.51,2.38,1.51
			c4.54,0,7.81,2.82,8.88,7.19c0.07,0.31,0.08,0.63,0.09,0.95c0.01,0.63-0.43,0.93-0.93,1.1c-0.61,0.21-1.02-0.15-1.24-0.66
			c-0.31-0.73-0.55-1.49-0.79-2.24c-0.8-2.57-4.26-4.41-6.89-4.02c-0.86,0.13-1.12,1.14-1.47,1.83c-1.71,3.38-2.66,6.9-1.68,10.72
			c0.21,0.82-0.25,1.35-0.94,1.55c-0.66,0.19-1.15-0.32-1.39-0.88c-0.2-0.46-0.23-1-0.3-1.51c-0.49-3.97,0.4-7.67,2.21-11.18
			c0.09-0.18,0.17-0.38,0.32-0.5c0.91-0.74,0.66-1.36,0.03-2.2c-1.48-1.98-2.22-4.31-2.54-6.72c-0.62-4.58,0.15-8.99,2.14-13.14
			c1.48-3.1,3.61-5.72,6.68-7.4c0.58-0.32,0.71-0.59,0.69-1.16c-0.12-3.21,0.82-6.13,2.57-8.79c2.33-3.54,5.58-5.8,9.74-6.66
			c0.94-0.19,1.57-0.63,2.04-1.38c1.92-3.01,4.54-5.28,7.61-7.02c4.69-2.65,10.4-1.65,13.31,3.16c0.83,1.37,1.1,2.97,1.09,4.6
			c-0.02,3.47,0.02,6.95-0.03,10.42c-0.01,0.82,0.2,1.09,1.05,1.07c2.43-0.06,4.87-0.04,7.31-0.01c0.65,0.01,0.97-0.14,0.89-0.85
			c-0.05-0.47,0-0.96-0.01-1.44c-0.02-1.17,0.21-2.18-1.34-2.97c-1.91-0.97-2.15-4.33-0.8-5.83c1.79-2,4.48-2.07,6.21-0.42
			c2.09,2,1.63,5.38-0.98,6.64c-0.53,0.26-0.66,0.57-0.65,1.1c0.03,1.52,0,3.03,0.01,4.55c0.01,1.08-0.5,1.62-1.6,1.61
			c-1.12-0.01-2.24,0.03-3.35-0.01c-0.65-0.03-0.93,0.14-0.9,0.85c0.05,1.32,0.04,2.64,0,3.95c-0.02,0.66,0.16,0.91,0.87,0.9
			c2.99-0.04,5.99-0.04,8.98,0c0.68,0.01,0.97-0.31,1.29-0.82c1.23-2.02,3.24-2.68,5.45-1.71c1.47,0.65,2.78,2.46,2.24,4.78
			c-0.33,1.44-1.79,2.77-3.46,3.06c-1.54,0.27-3.35-0.43-4.02-1.73c-0.47-0.91-1.05-1.19-2.06-1.17c-3.31,0.07-6.63,0.03-9.94,0.02
			c-1.41,0-1.67-0.27-1.68-1.68c-0.01-1.88-0.02-3.75,0.01-5.63c0.01-0.61-0.16-0.81-0.8-0.83c-2.7-0.08-2.7-0.11-2.7,2.53
			c0,5.35,0.03,10.7-0.03,16.05c-0.01,1.07,0.39,1.2,1.31,1.22c0.98,0.02,1.37-0.23,1.26-1.25c-0.08-0.71,0-1.44-0.02-2.15
			c-0.02-0.86,0.34-1.39,1.23-1.43c0.99-0.04,1.16,0.68,1.19,1.44c0.03,0.84,0.05,1.68-0.01,2.51c-0.05,0.71,0.23,0.9,0.89,0.86
			c0.8-0.05,1.6-0.02,2.4-0.01c1.56,0.02,1.82,0.19,1.71,1.71c-0.09,1.25,0.29,1.7,1.54,1.53c0.67-0.09,1.36-0.05,2.03,0
			c0.68,0.05,1.14,0.45,1.09,1.16c-0.04,0.66-0.38,1.13-1.13,1.13c-0.92,0.01-1.84,0.03-2.75,0c-0.56-0.02-0.73,0.16-0.76,0.74
			c-0.11,2.51-0.14,2.51,2.33,2.51c0.4,0,0.8,0,1.2,0.01c0.75,0.01,1.09,0.48,1.12,1.15c0.04,0.73-0.43,1.11-1.11,1.16
			c-0.88,0.06-1.76,0.05-2.63,0.01c-0.62-0.03-0.94,0.07-0.91,0.82c0.09,2.07,0.4,2.43-2.47,2.4c-2.52-0.03-2.52-0.01-2.53,2.54
			c0,0.32,0.05,0.65-0.03,0.95c-0.14,0.56-0.42,1.1-1.11,1.05c-0.68-0.05-1.23-0.38-1.27-1.17c-0.03-0.64-0.04-1.28,0-1.92
			c0.06-0.9,0.09-1.53-1.23-1.52c-1.35,0-1.32,0.63-1.31,1.59c0.03,3.99,0.01,7.99,0.01,11.98c0,1.8,0.02,3.59-0.01,5.39
			c-0.01,0.67,0.2,0.87,0.88,0.89c2.62,0.05,2.62,0.08,2.62-2.48c0-1.36-0.01-2.72,0-4.07c0.01-1.33,0.27-1.59,1.64-1.59
			c3.39-0.01,6.79-0.02,10.18,0.01c0.8,0.01,1.32-0.15,1.7-0.93c1.06-2.19,4.14-2.58,6-1.26c2.05,1.46,2.31,4.12,0.66,6.05
			c-1.87,2.19-5.15,1.97-6.64-0.5c-0.43-0.71-0.87-0.97-1.69-0.96c-2.83,0.05-5.67,0.04-8.5,0.01c-0.73-0.01-1.09,0.11-1.04,0.96
			c0.07,1.31,0.05,2.64,0.01,3.95c-0.02,0.63,0.21,0.83,0.83,0.81c1.16-0.04,2.32,0,3.47-0.01c1.04-0.01,1.54,0.52,1.55,1.53
			c0.01,1.52,0.02,3.04-0.01,4.55c-0.01,0.57,0.11,0.92,0.7,1.19c2.08,0.97,2.77,3.24,1.79,5.58c-0.69,1.64-3.13,2.61-4.97,2
			c-2.09-0.7-2.82-2.07-2.88-3.78c-0.06-1.71,0.59-3.18,2.37-3.86c0.42-0.16,0.59-0.45,0.57-0.92c-0.03-1.04-0.05-2.08,0-3.11
			c0.04-0.68-0.27-0.78-0.85-0.77c-2.52,0.02-5.03,0.04-7.55-0.01c-0.72-0.01-0.85,0.27-0.85,0.91c0.02,3.99,0.04,7.99,0,11.98
			c-0.01,1.26,0.92,1.89,1.68,2.46c3.06,2.29,6.58,3.11,10.35,2.59c3-0.41,5.73-1.53,7.96-3.68c1.01-0.97,1.75-2.14,2.42-3.34
			c0.27-0.49,0.56-0.7,1.06-0.8c2.69-0.55,5.16-1.66,7.2-3.48c2.3-2.05,3.75-4.63,3.62-7.84c-0.04-0.91,0.34-1.46,1-1.87
			c4.82-3.02,6.14-7.6,5.57-12.89c-0.31-2.87-1.32-5.55-3.31-7.77c-0.46-0.51-0.46-1.16-0.02-1.64c3.68-4.01,4.09-8.76,3.15-13.82
			c-0.64-3.42-1.93-6.53-4.35-9.09c-1.12-1.18-2.28-2.29-3.93-2.76c-0.75-0.21-1.12-0.83-1.04-1.67c0.49-5.3-1.59-9.45-5.85-12.49
			c-1.49-1.06-3.24-1.69-5.1-1.88c-1.05-0.11-1.7-0.57-2.31-1.55c-2.02-3.24-4.7-5.87-8.27-7.41c-0.85-0.37-1.07-0.94-0.82-1.7
			c0.26-0.81,1.02-0.74,1.6-0.54c2.12,0.75,3.87,2.11,5.54,3.57c1.49,1.31,2.72,2.84,3.8,4.49c0.3,0.46,0.68,0.69,1.25,0.79
			c3.88,0.7,7.04,2.68,9.44,5.76c2.03,2.6,3.19,5.64,3.24,8.93c0.02,1.41,0.65,2.04,1.63,2.65c2.93,1.8,4.75,4.51,6.06,7.57
			c1.4,3.29,2.23,6.73,1.97,10.35c-0.23,3.17-0.95,6.2-2.91,8.8c-0.46,0.62-0.43,1.12-0.01,1.82c2.58,4.29,3.69,8.81,2.26,13.8
			c-0.85,2.98-2.11,5.74-4.67,7.51c-1.57,1.08-1.5,2.55-1.84,3.97c-0.74,3.07-2.53,5.39-4.92,7.32c-1.95,1.57-4.15,2.62-6.6,3.12
			c-0.7,0.14-0.83,0.74-1.08,1.17c-3.32,5.6-11.28,8.18-17.07,6.84c-2.76-0.64-5.29-1.71-7.34-3.71c-0.4-0.39-0.61-0.39-1.05-0.01
			c-5.12,4.5-10.96,5.13-17.18,2.87c-3.28-1.2-5.88-3.41-7.69-6.45c-0.24-0.41-0.51-0.61-0.99-0.73c-4.84-1.21-8.52-3.97-10.7-8.49
			c-0.67-1.38-1-2.94-1.07-4.51c-0.03-0.81,0.31-1.43,1.17-1.54c0.97-0.12,1.27,0.63,1.31,1.35c0.15,2.97,1.36,5.39,3.51,7.42
			c1.68,1.58,3.67,2.58,5.81,3.35c0.58,0.21,0.51-0.16,0.64-0.51c0.87-2.28,1.95-4.4,3.97-5.95c1.5-1.15,3.16-1.82,5-2.01
			c0.64-0.07,1.3,0.13,1.36,0.98c0.07,0.82-0.35,1.31-1.14,1.39c-2.36,0.25-4.15,1.45-5.47,3.33c-0.77,1.11-1.3,2.39-1.56,3.71
			c-0.21,1.07,0.72,1.78,1.27,2.46c1.92,2.38,4.45,3.88,7.47,4.52c0.59,0.13,0.69-0.06,0.86-0.59c0.64-2.05,1.85-3.65,3.91-4.49
			c0.64-0.26,1.29-0.43,1.98-0.36c0.64,0.06,0.99,0.45,1.06,1.09c0.07,0.61-0.16,1-0.76,1.16c-0.46,0.12-0.91,0.27-1.36,0.4
			c-1.32,0.39-1.96,1.42-2.43,2.6c-0.23,0.58,0.06,0.72,0.56,0.68c3.48-0.3,6.72-1.16,9.21-3.84c0.42-0.45,0.51-0.94,0.51-1.53
			c-0.01-4.43-0.04-8.86,0.01-13.3c0.01-0.9-0.24-1.09-1.12-1.14c-3.39-0.2-5.91-1.79-7.36-4.94c-0.33-0.72-0.46-1.47,0.3-1.9
			c0.64-0.36,1.35-0.41,1.73,0.57c0.96,2.49,2.91,3.64,5.49,3.9c0.68,0.07,0.97-0.06,0.97-0.86c-0.03-14.37-0.02-28.75-0.02-43.13
			c0-1.2-1.48-2.5-3.16-2.75c-1.31-0.19-2.62-0.22-3.82,0.56c-0.33,0.21-0.72,0.35-1.1,0.46c-0.64,0.19-1.25,0.04-1.49-0.59
			c-0.21-0.57-0.09-1.1,0.57-1.51C77.71,60.71,80.65,60.6,83.77,62.41z"/>
		<path class="st5" d="M114.62,96.16c-2.14,0.01-3.48-1.07-4.08-3.29c-0.44-1.63,0.4-3.51,2-4.42c0.61-0.35,0.91-0.76,0.86-1.51
			c-0.07-1.27-0.07-2.55,0-3.83c0.04-0.76-0.26-1.16-0.88-1.5c-2.08-1.15-2.66-3.48-1.48-5.77c0.87-1.69,3.46-2.47,5.34-1.61
			c1.96,0.9,2.87,3.34,2.04,5.34c-0.4,0.96-0.94,1.76-1.92,2.15c-0.54,0.21-0.68,0.56-0.66,1.1c0.03,1.43,0.05,2.87-0.01,4.3
			c-0.03,0.66,0.21,0.98,0.78,1.28c1.56,0.81,2.47,2.82,2.08,4.42C118.2,94.94,116.7,96.15,114.62,96.16z"/>
		<path class="st5" d="M66.99,79.84c-3.14,0.75-6,0.14-8.86-0.65c-0.7-0.2-1.22-0.58-1.44-1.29c-0.16-0.51,0.23-0.8,0.55-1.1
			c0.39-0.37,0.77-0.21,1.21-0.07c1.71,0.55,3.46,0.98,5.26,0.99c2.3,0.02,4.42-0.46,5.91-2.48c0.5-0.68,1.24-0.57,1.81-0.14
			c0.63,0.47,0.5,1.17,0.02,1.68c-0.43,0.46-0.68,1.09-1.33,1.34c-0.4,0.15-0.45,0.49-0.5,0.87c-0.38,2.66-1.54,4.84-3.98,6.15
			c-0.95,0.51-2.01,0.72-3.09,0.78c-0.69,0.04-1.29-0.15-1.33-1.01c-0.04-0.85,0.33-1.41,1.23-1.42c1.59-0.01,2.77-0.75,3.76-1.94
			C66.64,81.07,66.63,80.49,66.99,79.84z"/>
		<path class="st8" d="M78.08,92.49c-0.03,0.69-0.56,1.07-1.31,1.07c-2.65-0.02-4.55,1.26-6.06,3.34c-0.88,1.21-1.73,1.24-2.35,0.22
			c-0.21-0.34-0.24-0.66-0.04-1c1.6-2.8,5-5.05,8.26-4.98C77.49,91.15,78.04,91.62,78.08,92.49z"/>
		<path class="st2" d="M69.65,65.89c0.03-1.01,0.66-1.59,1.68-1.54c0.84,0.04,1.6,0.83,1.58,1.63c-0.02,0.67-1.01,1.64-1.66,1.64
			C70.39,67.62,69.63,66.79,69.65,65.89z"/>
		<path class="st9" d="M56.27,102.88c-0.86,0-1.6-0.74-1.54-1.62c0.06-0.92,0.56-1.47,1.5-1.53c0.82-0.05,1.64,0.73,1.65,1.54
			C57.89,102.07,57.08,102.89,56.27,102.88z"/>
		<path class="st10" d="M89.98,37.51c0.02,0.94-0.61,1.3-1.37,1.3c-0.77,0-1.27-0.53-1.23-1.33c0.04-0.77,0.4-1.37,1.32-1.34
			C89.59,36.17,89.99,36.65,89.98,37.51z"/>
		<path class="st11" d="M44.03,107.63c1.11-0.01,1.52,0.52,1.56,1.33c0.04,0.88-0.53,1.35-1.33,1.35c-0.74,0-1.31-0.52-1.31-1.27
			C42.95,108.3,43.35,107.68,44.03,107.63z"/>
		<path class="st7" d="M93.86,85.09c0,1.32-0.03,2.63,0.01,3.95c0.02,0.62-0.17,0.84-0.81,0.82c-1.99-0.03-3.99-0.03-5.99,0
			c-0.62,0.01-0.84-0.18-0.83-0.82c0.03-2.67,0.03-5.35,0-8.02c-0.01-0.63,0.21-0.83,0.83-0.82c2,0.03,3.99,0.03,5.99,0
			c0.63-0.01,0.83,0.2,0.81,0.82C93.83,82.38,93.86,83.74,93.86,85.09z"/>
		<path class="st12" d="M98.39,47.16c0.02,1.17-0.57,1.8-1.72,1.81c-1.08,0.01-1.66-0.59-1.68-1.72c-0.02-1.12,0.56-1.78,1.59-1.82
			C97.73,45.39,98.37,46,98.39,47.16z"/>
		<path class="st12" d="M98.39,122.9c-0.02,1.16-0.66,1.79-1.79,1.75c-1.03-0.03-1.62-0.7-1.6-1.81c0.01-1.14,0.58-1.72,1.67-1.72
			C97.82,121.11,98.41,121.72,98.39,122.9z"/>
		<path class="st13" d="M106.75,106.74c-1-0.01-1.74-0.73-1.74-1.69c0-1,0.8-1.72,1.86-1.69c1,0.03,1.79,0.78,1.79,1.69
			C108.67,106,107.82,106.75,106.75,106.74z"/>
		<path class="st14" d="M106.72,66.72c-0.98-0.02-1.73-0.78-1.71-1.73c0.02-1.03,0.8-1.7,1.89-1.65c0.99,0.04,1.78,0.82,1.76,1.72
			C108.64,66,107.77,66.74,106.72,66.72z"/>
		<path class="st12" d="M112.81,91.99c0.02-0.97,0.89-1.82,1.83-1.78c0.87,0.03,1.69,0.92,1.69,1.83c0,0.97-0.78,1.77-1.72,1.78
			C113.62,93.82,112.79,92.98,112.81,91.99z"/>
		<path class="st12" d="M114.56,76.26c0.96-0.02,1.74,0.74,1.77,1.72c0.03,0.93-0.87,1.9-1.76,1.88c-0.92-0.02-1.72-0.81-1.76-1.74
			C112.77,77.12,113.55,76.29,114.56,76.26z"/>
	</g>
</g>
</svg>
